<?xml version="1.0" encoding="utf-8"?>
<!-- Generator: Adobe Illustrator 19.2.1, SVG Export Plug-In . SVG Version: 6.00 Build 0)  -->
<svg version="1.1" id="Calque_1" xmlns="http://www.w3.org/2000/svg" xmlns:xlink="http://www.w3.org/1999/xlink" x="0px" y="0px"
	 viewBox="0 0 2048 2048" style="enable-background:new 0 0 2048 2048;" xml:space="preserve">
<style type="text/css">
	.st0{fill:#FFFFFF;}
	.st1{fill:none;stroke:#000000;stroke-miterlimit:10;}
	.st2{fill:none;stroke:#1D1D1B;stroke-linecap:round;stroke-miterlimit:10;}
	.st3{fill:none;stroke:#EDEDED;stroke-linecap:round;stroke-miterlimit:10;}
	.st4{font-family:'OldEnglishTextMT';}
	.st5{font-size:189.7543px;}
	.st6{letter-spacing:-3.8;}
	.st7{letter-spacing:-11.3;}
</style>
<g id="XMLID_2_">
	<g>
		<path d="M1661.8,1284.3v128h-128C1604.5,1412.3,1661.8,1355,1661.8,1284.3z"/>
		<path d="M1661.8,644.3v640c0-70.7-57.3-128-128-128v-384C1604.5,772.3,1661.8,715,1661.8,644.3z"/>
		<path d="M1661.8,516.3v128c0-70.7-57.3-128-128-128H1661.8z"/>
		<path d="M1533.8,516.3c70.7,0,128,57.3,128,128s-57.3,128-128,128v-128h-128C1405.8,573.7,1463.1,516.3,1533.8,516.3z"/>
		<path d="M1533.8,1156.3c70.7,0,128,57.3,128,128c0,70.7-57.3,128-128,128c-70.7,0-128-57.3-128-128h128V1156.3z"/>
		<path d="M1533.8,1156.3v128h-128C1405.8,1213.7,1463.1,1156.3,1533.8,1156.3z"/>
		<path class="st0" d="M1533.8,772.3v384c-70.7,0-128,57.3-128,128h-896c0-70.7-57.3-128-128-128v-384c70.7,0,128-57.3,128-128h896
			C1405.8,715,1463.1,772.3,1533.8,772.3z M1405.8,956.9c0-31.2-25.3-56.6-56.6-56.6s-56.6,25.3-56.6,56.6
			c0,31.2,25.3,56.6,56.6,56.6S1405.8,988.2,1405.8,956.9z M1149.8,964.3c0-106-86-192-192-192s-192,86-192,192s86,192,192,192
			S1149.8,1070.4,1149.8,964.3z M625.4,961.3c0-31.2-25.3-56.6-56.6-56.6s-56.6,25.3-56.6,56.6c0,31.2,25.3,56.6,56.6,56.6
			S625.4,992.6,625.4,961.3z"/>
		<path d="M1533.8,644.3v128c-70.7,0-128-57.3-128-128H1533.8z"/>
		<path d="M381.8,516.3h1152c-70.7,0-128,57.3-128,128h-896C509.8,573.7,452.5,516.3,381.8,516.3z"/>
		<path d="M1533.8,1412.3h-1152c70.7,0,128-57.3,128-128h896C1405.8,1355,1463.1,1412.3,1533.8,1412.3z"/>
		<circle cx="1349.2" cy="956.9" r="56.6"/>
		<circle cx="957.8" cy="964.3" r="192"/>
		<circle cx="568.8" cy="961.3" r="56.6"/>
		<path d="M509.8,644.3h-128v128c-70.7,0-128-57.3-128-128s57.3-128,128-128S509.8,573.7,509.8,644.3z"/>
		<path d="M381.8,644.3h128c0,70.7-57.3,128-128,128V644.3z"/>
		<path d="M509.8,1284.3h-128v-128C452.5,1156.3,509.8,1213.7,509.8,1284.3z"/>
		<path d="M381.8,1284.3h128c0,70.7-57.3,128-128,128s-128-57.3-128-128c0-70.7,57.3-128,128-128V1284.3z"/>
		<path d="M381.8,772.3v384c-70.7,0-128,57.3-128,128v-640C253.8,715,311.1,772.3,381.8,772.3z"/>
		<path d="M253.8,516.3h128c-70.7,0-128,57.3-128,128V516.3z"/>
		<path d="M381.8,1412.3h-128v-128C253.8,1355,311.1,1412.3,381.8,1412.3z"/>
	</g>
	<g>
		<line class="st1" x1="1533.8" y1="772.3" x2="1533.8" y2="1156.3"/>
		<line class="st1" x1="509.8" y1="644.3" x2="1405.8" y2="644.3"/>
		<line class="st1" x1="381.8" y1="1156.3" x2="381.8" y2="772.3"/>
		<line class="st1" x1="1405.8" y1="1284.3" x2="509.8" y2="1284.3"/>
		<polygon class="st1" points="1661.8,1284.3 1661.8,1412.3 1533.8,1412.3 381.8,1412.3 253.8,1412.3 253.8,1284.3 253.8,644.3 
			253.8,516.3 381.8,516.3 1533.8,516.3 1661.8,516.3 1661.8,644.3 		"/>
		<path class="st1" d="M509.8,644.3c0,70.7-57.3,128-128,128"/>
		<path class="st1" d="M1405.8,1284.3c0-70.7,57.3-128,128-128"/>
		<path class="st1" d="M1533.8,772.3c-70.7,0-128-57.3-128-128"/>
		<path class="st1" d="M381.8,1156.3c70.7,0,128,57.3,128,128"/>
		<circle class="st2" cx="568.8" cy="961.3" r="56.6"/>
		<circle class="st3" cx="1349.2" cy="956.9" r="56.6"/>
		<circle class="st2" cx="957.8" cy="964.3" r="192"/>
	</g>
</g>
<text transform="matrix(0.5311 0 0 1 829.7932 1028.3448)"><tspan x="0" y="0" class="st0 st4 st5 st6">C</tspan><tspan x="134.5" y="0" class="st0 st4 st5 st7">F</tspan><tspan x="282.8" y="0" class="st0 st4 st5 st6">A</tspan></text>
<polygon points="1682.8,629 1688.5,1444.7 332.2,1444.7 329.8,1561.3 1792.8,1561.3 1783.8,625.3 "/>
</svg>
