<?xml version="1.0" encoding="utf-8"?>
<!-- Generator: Adobe Illustrator 19.2.1, SVG Export Plug-In . SVG Version: 6.00 Build 0)  -->
<svg version="1.1" id="Calque_1" xmlns="http://www.w3.org/2000/svg" xmlns:xlink="http://www.w3.org/1999/xlink" x="0px" y="0px"
	 viewBox="0 0 2048 2048" style="enable-background:new 0 0 2048 2048;" xml:space="preserve">
<style type="text/css">
	.st0{fill:#FF6600;stroke:#1D1D1B;stroke-linecap:round;stroke-miterlimit:10;}
</style>
<g id="XMLID_5_">
	<path d="M880,815.3L255.3,1440c-27.9,27.9-73,27.9-100.9,0l-41.1-41.1c-27.9-27.8-27.9-73,0-100.9l624-624H333
		c-43.1,0-78-34.9-78-78c0-21.5,8.7-41,22.8-55.2C292,526.7,311.5,518,333,518h598.4c6.5-2,13.5-3,20.6-3c19.9,0,37.9,8.1,50.9,21.1
		s21.1,31,21.1,50.9v9v618c0,39.8-32.2,72-72,72s-72-32.2-72-72V815.3z"/>
</g>
<g id="XMLID_4_">
	<path class="st0" d="M1358,1130l619.9-629.5c27.7-28,27.3-73.2-0.8-100.9l-41.4-40.8c-28-27.6-73.2-27.2-100.9,0.8l-619.2,628.7
		l-3.1-404.3c-0.3-43.1-35.5-77.7-78.6-77.4c-21.5,0.2-40.9,9-55,23.2c-14,14.2-22.5,33.8-22.4,55.4l4.6,598.4
		c-2,6.5-2.9,13.4-2.8,20.6c0.2,19.9,8.4,37.8,21.5,50.7c13.1,12.9,31.2,20.9,51.1,20.7l9-0.1l618-4.7c39.8-0.3,71.8-32.7,71.4-72.5
		c-0.3-39.8-32.7-71.8-72.5-71.4L1358,1130z"/>
</g>
</svg>
